<?xml version="1.0" encoding="UTF-8"?>
<svg width="512" height="512" viewBox="0 0 512 512" fill="none" xmlns="http://www.w3.org/2000/svg">
    <!-- Gradient Definitions -->
    <defs>
        <linearGradient id="gradient" x1="0%" y1="0%" x2="100%" y2="100%">
            <stop offset="0%" style="stop-color:#FA7275"/>
            <stop offset="100%" style="stop-color:#f85d60"/>
        </linearGradient>
        <filter id="shadow" x="-20%" y="-20%" width="140%" height="140%">
            <feGaussianBlur in="SourceAlpha" stdDeviation="15"/>
            <feOffset dx="0" dy="4"/>
            <feComposite in2="SourceAlpha" operator="arithmetic" k2="-1" k3="1"/>
            <feColorMatrix type="matrix" values="0 0 0 0 1   0 0 0 0 1   0 0 0 0 1  0 0 0 0.25 0"/>
        </filter>
    </defs>

    <!-- Background Circle with Glow -->
    <circle cx="256" cy="256" r="200" fill="url(#gradient)" filter="url(#shadow)"/>

    <!-- Cloud Icon -->
    <path d="M352 256c0-38.6-31.4-70-70-70-15.2 0-29.3 4.8-40.9 13.1-12.9-34.6-46.1-59.1-85.1-59.1-50.3 0-91 40.7-91 91 0 1.7 0 3.4 0.1 5.1C30.7 246.7 6 278.5 6 315c0 44.2 35.8 80 80 80h240c44.2 0 80-35.8 80-80 0-38.6-27.3-70.9-63.7-78.5C352 256 352 256 352 256z" 
          fill="white" 
          fill-opacity="0.9"/>

    <!-- Lock Icon -->
    <circle cx="256" cy="315" r="30" fill="white" fill-opacity="0.9"/>
    <rect x="226" y="285" width="60" height="60" rx="30" fill="none" stroke="white" stroke-width="20" stroke-opacity="0.9"/>
</svg>
